<svg width="64" height="64" viewBox="0 0 64 64" fill="none" xmlns="http://www.w3.org/2000/svg">
<path d="M32 4.36719C32.7145 4.36719 33.4125 4.5862 33.999 4.99414C34.512 5.35101 34.9185 5.83774 35.1787 6.40234L35.2812 6.64941L41.0801 22.6211L41.1602 22.8408L41.3799 22.9199L57.3545 28.7207L57.3574 28.7217C58.0323 28.962 58.6155 29.4063 59.0264 29.9932C59.4372 30.5801 59.6556 31.2807 59.6504 31.9971V32.0039C59.6556 32.7203 59.4372 33.4209 59.0264 34.0078C58.6155 34.5946 58.0322 35.039 57.3574 35.2793L57.3545 35.2803L41.3799 41.0801L41.1602 41.1602L41.0801 41.3799L35.2812 57.3516C35.0326 58.0212 34.5854 58.599 33.999 59.0068C33.4125 59.4148 32.7145 59.6338 32 59.6338C31.2857 59.6337 30.5884 59.4147 30.002 59.0068C29.4163 58.5995 28.9686 58.023 28.7197 57.3545H28.7207L22.9199 41.3799L22.8408 41.1602L22.6211 41.0801L6.64844 35.2812H6.64941C5.97975 35.0327 5.40207 34.5854 4.99414 33.999C4.5862 33.4125 4.36719 32.7145 4.36719 32C4.36724 31.2856 4.58624 30.5884 4.99414 30.002C5.40119 29.4167 5.97661 28.9687 6.64453 28.7197L6.64551 28.7207L22.6211 22.9199L22.8408 22.8408L22.9199 22.6211L28.7207 6.64551L28.7197 6.64453C28.9687 5.97661 29.4167 5.40119 30.002 4.99414C30.5884 4.58624 31.2856 4.36724 32 4.36719Z" fill="white" stroke="black"/>
</svg>

